<svg xmlns="http://www.w3.org/2000/svg" viewBox="0 0 50.05 42.14"><title>kata_3</title><g id="レイヤー_2" data-name="レイヤー 2"><g id="レイヤー_1-2" data-name="レイヤー 1"><path d="M22.74,16.53a5.47,5.47,0,0,0-.52,2.06c-.23,1.74-.36,3.43-.79,6.34-.55,3.9-1.14,7-1.66,9.19-1,4.48-2.28,6.17-4.34,6.17-.75,0-.91-.31-1-1.53a5.67,5.67,0,0,0-.85-2.58c-.65-.9-1.08-1.54-1.56-2.12a1.14,1.14,0,0,1-.43-.89c0-.32.16-.37.33-.37a3.61,3.61,0,0,1,.85.42,15.26,15.26,0,0,0,3,1.37c.46,0,1-.63,1.47-2.48.75-3.12,1.18-6.39,1.57-9.19a68.68,68.68,0,0,0,.88-8.24c0-.47-.07-.58-.36-.58a12.12,12.12,0,0,0-1.47.11,47.6,47.6,0,0,0-5,1,64.11,64.11,0,0,1-4,14.89A26.3,26.3,0,0,1,1.4,40.51c-.45.37-.75.58-1,.58S0,41,0,40.61s.16-.47.52-1a39.6,39.6,0,0,0,6-10.93A74,74,0,0,0,9.85,15.58c-.85.26-2.51.84-3.75,1.32a3,3,0,0,0-1.27.84,1.23,1.23,0,0,1-.85.37c-.36,0-1.14-.68-1.89-1.9a6.27,6.27,0,0,1-1-3.32c0-1,.1-1.59.3-1.59s.29.16.45.42c.89,1.32,1.73,2.06,2.58,2.06a17.1,17.1,0,0,0,1.86-.21c1.14-.21,2.55-.47,4.08-.79a63.23,63.23,0,0,0,.62-7.55,2.65,2.65,0,0,0-.29-1.43A3.13,3.13,0,0,0,9.56,3c-.59-.26-.78-.26-.78-.58a1.42,1.42,0,0,1,.39-.79A1.67,1.67,0,0,1,10.54,1a6,6,0,0,1,3.19,1.74,2.71,2.71,0,0,1,1.11,2.22,2.43,2.43,0,0,1-.52,1.64,3.72,3.72,0,0,0-.55,1.53c-.2,1.43-.33,2.38-.62,4.33,1.92-.37,3.62-.74,5.09-1a1.46,1.46,0,0,0,.94-.48c.23-.31.49-.63.79-.63.52,0,1.07.42,2,1.69s1.37,2.06,1.4,2.74A2.37,2.37,0,0,1,22.74,16.53Z"/><path d="M45.35,7.08a1.47,1.47,0,0,0,.89-.74,1,1,0,0,1,.88-.58,2.36,2.36,0,0,1,1.24.89c1.17,1.43,1.69,2.49,1.69,3.44a1.88,1.88,0,0,1-.68,1.53,2.62,2.62,0,0,0-.88,1.21c-1.7,4.49-2.84,7.19-4,9.67C46.66,25,47.18,27,47.18,28.62c0,1.27-.59,2.59-1.43,2.59-.46,0-1-.47-1.41-1.32a36.8,36.8,0,0,0-1.63-3.59c-3.78,6.87-8.51,12.67-14,15.63a2,2,0,0,1-.56.21c-.13,0-.32-.16-.32-.47a.9.9,0,0,1,.39-.74c4.37-4.28,7.86-8.19,12.56-17.59a23.16,23.16,0,0,0-3.59-4c-.33-.32-.49-.47-.49-.68,0-.37.16-.53.46-.48a6.63,6.63,0,0,1,.78.21,14.1,14.1,0,0,1,4.18,2A104.42,104.42,0,0,0,45.88,10.3a1.83,1.83,0,0,0,.1-.64c0-.1-.07-.21-.33-.15a30.09,30.09,0,0,0-3,1,6.87,6.87,0,0,1-1.6.37,2.86,2.86,0,0,1-1.67-.64,73,73,0,0,1-5,9.51,24.81,24.81,0,0,1-4.47,5.38c-.19.16-.29.27-.45.27s-.36-.21-.36-.48a1.06,1.06,0,0,1,.26-.68c1.3-2.17,2.58-4.49,3.78-7,1.28-2.7,2.48-5.5,3.53-8.4,1.14-3.12,1.43-4.49,1.43-5.18a2.06,2.06,0,0,0-.23-.89,4.5,4.5,0,0,0-1.11-1.32c-.22-.22-.32-.32-.32-.53,0-.37.62-.9,1.08-.9a4.47,4.47,0,0,1,2.93,1.58C41.6,2.64,42,3.43,42,4.28a1.82,1.82,0,0,1-.49,1.53,2.94,2.94,0,0,0-.69.84c-.19.43-.36.85-.71,1.75A22.86,22.86,0,0,0,45.35,7.08Z"/></g></g></svg>