<svg xmlns="http://www.w3.org/2000/svg" viewBox="0 0 90.97 70.77"><title>kata_1</title><g id="レイヤー_2" data-name="レイヤー 2"><g id="レイヤー_1-2" data-name="レイヤー 1"><path d="M40.45,9.31l-2.91,2.27,10.53,4.94L32.21,50.39l-12-5.65,1.53-3.4,2,.92c1.65.78,2.25.19,3.2-1.84L38.24,16.13l-4.11-1.92L6.83,35.3,0,27.93c3.28-2.58,1.4-1.13,3-2.35L4.7,27.42c1.24,1.31,2,1,3.83-.39l20-15.44L17.4,6.37a2.59,2.59,0,0,0-2.94,1l-.19.4-4.19-2L12.81,0,32,9l4.73-3.7Z"/><path d="M68.34,25,91,35.55,74.47,70.77,55.82,62l1.51-3.36,8.59,4c1.65.78,2.19.21,3.14-1.82L76,46.11,63.28,40.17l2.38-5.09L78.34,41l2.74-5.84L66.7,28.44,58.08,46.85,47.24,41.77l1.58-3.38c1.7.8,3,.52,3.92-1.51l8.9-19,8.21,3.85Z"/></g></g></svg>