<svg xmlns="http://www.w3.org/2000/svg" viewBox="0 0 69.68 32.11"><title>kata_4</title><g id="レイヤー_2" data-name="レイヤー 2"><g id="レイヤー_1-2" data-name="レイヤー 1"><path d="M26.19,6,29,9.32a78.51,78.51,0,0,1-3.87,15.74c-1.55,4-2.93,5.5-5.12,5.5a5.79,5.79,0,0,1-4-1.81,20.14,20.14,0,0,1-2.65-3.44l2.27-1.59c1.72,3,2.77,4.11,4.07,4.11s1.85-.88,3.19-4.58a70.61,70.61,0,0,0,3.27-13.18l-.88-1.13-8,2.1c-3,8.77-7.22,14.4-15.44,21L0,29.89c7.05-5.25,11-10.29,14.19-18L4.74,14.31l-.58-2.56L15.24,8.86A68.8,68.8,0,0,0,17.38,0L20,.67c-.46,2.39-1.13,5.12-1.76,7.39Z"/><path d="M66.54,26.07a43.09,43.09,0,0,0-6.17-3.91,41.12,41.12,0,0,1-15,10L44,29.59A42.48,42.48,0,0,0,57.8,20.82c-.58-.25-1.09-.55-1.26-.63-1-.46-1.63-.8-1.88-.88-2.86-1.09-3.11-1.18-3.15-1.18l1.13-2.3a66.17,66.17,0,0,1,7.1,3,76.22,76.22,0,0,0,6.8-9.32l-.63-.38-12.6,4.24A34.11,34.11,0,0,1,47,18.89l-1.68-2.14c5.79-3.86,10-9.32,12.93-16.75l2.51,1.05a31.56,31.56,0,0,1-4.61,8.77L67,6.21l2.72,2.6a60.7,60.7,0,0,1-7.47,11.34,32.61,32.61,0,0,1,5.54,3.57Z"/></g></g></svg>