<svg xmlns="http://www.w3.org/2000/svg" viewBox="0 0 138.72 68.96">
<title>kata_5</title>
<g id="svgGroup" data-name="レイヤ_1"><path d="M 52.64 17.84 L 33.12 16.32 A 419.43 419.43 0 0 0 33.323 15.346 C 34.088 11.645 35.351 5.317 35.36 4.331 A 1.141 1.141 0 0 0 35.36 4.32 A 2.109 2.109 0 0 0 35.316 3.9 C 35.199 3.327 34.851 2.713 34.292 2.36 A 1.906 1.906 0 0 0 33.52 2.08 A 158.032 158.032 0 0 1 32.083 1.9 C 27.92 1.361 21.666 0.427 18.96 0 L 18.8 0 A 2.179 2.179 0 0 0 17.182 0.769 A 1.431 1.431 0 0 0 16.88 1.36 A 234.026 234.026 0 0 1 16.328 4.033 C 15.9 6.049 15.376 8.416 14.778 11.024 A 642.629 642.629 0 0 1 13.92 14.72 L 2.8 13.84 L 2.64 13.84 A 1.661 1.661 0 0 0 0.969 15.278 A 1.762 1.762 0 0 0 0.96 15.36 L 0 27.28 L 0 27.44 A 1.618 1.618 0 0 0 0.264 28.342 A 1.591 1.591 0 0 0 1.44 29.04 L 10.24 29.84 C 7.12 42.24 3.68 55.2 1.36 63.12 A 0.462 0.462 0 0 1 1.354 63.196 C 1.335 63.308 1.282 63.385 1.28 63.514 A 0.48 0.48 0 0 0 1.28 63.52 C 1.28 64.32 1.92 65.04 2.72 65.2 L 15.52 67.12 L 15.76 67.12 C 16.64 67.12 17.44 66.48 17.84 65.68 C 21.532 57.139 25.223 46.11 28.381 35.08 A 389.373 389.373 0 0 0 29.36 31.6 L 38.56 32.4 A 1.985 1.985 0 0 1 38.951 32.472 C 39.349 32.592 39.548 32.826 39.631 33.094 A 1.17 1.17 0 0 1 39.68 33.44 A 6.762 6.762 0 0 1 39.532 34.232 C 38.835 37.388 35.65 49.34 29.28 62.64 A 3.256 3.256 0 0 0 29.046 63.701 A 4.015 4.015 0 0 0 29.04 63.92 A 1.808 1.808 0 0 0 29.475 65.214 C 29.641 65.385 29.864 65.519 30.16 65.6 L 40.4 68.8 A 9.38 9.38 0 0 0 40.912 68.918 C 41.013 68.937 41.108 68.951 41.196 68.957 A 1.276 1.276 0 0 0 41.28 68.96 A 3.058 3.058 0 0 0 42.081 68.852 C 42.753 68.67 43.265 68.297 43.552 68.041 A 3.169 3.169 0 0 0 43.68 67.92 C 54.4 54.8 60.88 31.92 60.88 26.4 C 60.88 21.36 56.08 18.16 52.64 17.84 Z M 131.04 9.6 L 106.4 7.6 C 102 1.2 101.84 1.12 100.96 1.12 A 2.445 2.445 0 0 0 99.608 1.633 A 3.892 3.892 0 0 0 99.44 1.76 C 97.31 3.535 94.684 5.61 91.763 7.685 A 77.947 77.947 0 0 1 77.52 15.92 A 2.705 2.705 0 0 0 76.984 16.26 C 76.702 16.498 76.525 16.792 76.488 17.194 A 1.783 1.783 0 0 0 76.48 17.36 A 1.952 1.952 0 0 0 76.504 17.666 C 76.55 17.956 76.673 18.318 76.96 18.72 L 84 29.44 A 2.297 2.297 0 0 0 84.451 29.947 A 2.105 2.105 0 0 0 85.84 30.4 A 5.494 5.494 0 0 0 86.989 30.247 C 90.913 29.374 99.322 25.016 102.147 23.541 A 549.9 549.9 0 0 1 102.8 23.2 L 114.16 24.08 A 2.547 2.547 0 0 1 114.792 24.205 C 115.022 24.284 115.213 24.395 115.362 24.531 A 1.199 1.199 0 0 1 115.76 25.44 C 115.76 26.43 114.822 27.733 111.951 31.173 A 442.279 442.279 0 0 1 110.72 32.64 C 106.16 30.56 100.48 28 98.72 28 A 2.304 2.304 0 0 0 97.975 28.114 C 97.53 28.264 97.143 28.565 96.72 29.04 L 90.56 35.6 C 90.35 35.81 90.263 36.02 90.244 36.23 A 1.02 1.02 0 0 0 90.24 36.32 A 1.282 1.282 0 0 0 90.312 36.731 C 90.486 37.244 90.956 37.766 91.535 38.191 A 5.566 5.566 0 0 0 91.84 38.4 L 99.84 44.08 A 129.829 129.829 0 0 1 92.772 50.361 C 90.785 51.998 88.797 53.529 86.86 54.903 A 75.749 75.749 0 0 1 83.44 57.2 C 82.56 57.76 82.16 58.4 82.16 58.88 A 1.44 1.44 0 0 0 82.274 59.443 C 82.361 59.651 82.502 59.859 82.708 60.068 A 2.807 2.807 0 0 0 82.72 60.08 L 89.68 67.12 C 90.542 67.982 91.568 68.404 92.35 68.524 A 2.999 2.999 0 0 0 92.8 68.56 A 2.785 2.785 0 0 0 93.532 68.342 C 95.68 67.505 101.948 64.25 109.525 58.517 A 115.025 115.025 0 0 0 114.56 54.48 A 739.027 739.027 0 0 1 114.629 54.528 C 117.534 56.534 119.953 58.235 121.314 59.058 A 11.498 11.498 0 0 0 121.84 59.36 C 122.32 59.68 122.64 59.92 123.04 59.92 A 1.465 1.465 0 0 0 123.711 59.754 C 124.074 59.572 124.473 59.225 124.96 58.64 L 133.84 48.96 C 134.16 48.56 134.32 48.24 134.32 47.84 C 134.32 46.55 132.737 44.901 128.003 42.005 A 87.403 87.403 0 0 0 127.2 41.52 A 68.785 68.785 0 0 0 132.645 33.812 C 136.544 27.379 138.458 21.68 138.695 18.418 A 9.114 9.114 0 0 0 138.72 17.76 A 7.788 7.788 0 0 0 137.888 14.212 C 136.47 11.407 133.498 9.776 131.04 9.6 Z" /></g></svg>