<svg xmlns="http://www.w3.org/2000/svg" viewBox="0 0 78.35 48.5"><title>kata_2</title><g id="レイヤー_2" data-name="レイヤー 2"><g id="レイヤー_1-2" data-name="レイヤー 1"><path d="M18.51,14.75a.23.23,0,0,1-.18.3,5.78,5.78,0,0,0-1.27,1.3,1.28,1.28,0,0,0-.3,1.14l.45,1.7,18.72-5a6.12,6.12,0,0,0-2.13,2.08,4.25,4.25,0,0,0,0,2.59l1.93,7.28c1.13,4.25,1.18,9-.75,11.48-2,2.66-3.63,4.25-8.49,5.54a84.52,84.52,0,0,1-9.37,1.32l2.9-3a9.81,9.81,0,0,0,6.12.75c3.07-.81,4.37-1.66,5.39-3.7.66-1.34.7-3.68-.14-6.85l-.84-3.37L28,18.72,17.89,21.39c.73,2.74,1.31,5.88,1.33,6A17.55,17.55,0,0,1,18,40.08c-1.92,3.45-6,7-9.21,7.81-2.7.71-8.19.6-8.19.6l3.3-2.8a5,5,0,0,0,4.87,1.19c3.07-.82,4.7-3.47,5.65-6.36,1.51-4.6.11-9.33-1-13.45l-1.12-4.2L4.18,25A3.9,3.9,0,0,0,2,26.5,7,7,0,0,0,1,28.71l-.71.19L0,23.75l11.72-3.1-.45-1.71a1.33,1.33,0,0,0-.83-.84,5.73,5.73,0,0,0-1.75-.5.23.23,0,0,1-.3-.17c0-.14,0-.26.22-.31l9.55-2.53C18.35,14.54,18.47,14.61,18.51,14.75Z"/><path d="M74.9,4.56A33.8,33.8,0,0,0,73.42,8.9c-.08.42-.72,3.58-1.25,5.94a17.08,17.08,0,0,0,5.29-.64A47.52,47.52,0,0,1,71.68,17c0,.1-1.1,3.48-2,6.09s-1.8,5.23-4.1,7.46a16.22,16.22,0,0,1-7.66,4.3,30.72,30.72,0,0,1-9.57.72l4.12-3.72c1.54.85,4,2,6.43,1.33,2.83-.75,4.17-2.78,5.2-4.62s1.48-3.37,2.22-6.3c.23-.87.5-3.27.61-4.21-2-.07-4.05-.75-6.8-1.39a25.49,25.49,0,0,0-6.29-.45,31.52,31.52,0,0,1-3.5,4,40.82,40.82,0,0,1-7.28,5.77c2.68-2.68,6.07-7.07,7.2-10.25A26.62,26.62,0,0,0,51.55,7.1L78.35,0A16.69,16.69,0,0,0,74.9,4.56ZM57.78,7.88a27.81,27.81,0,0,1-3,7.08c2.11-1,5.13-2.22,7.48-2.13a19.72,19.72,0,0,1,5.15.91,43.89,43.89,0,0,1,.64-5,34.34,34.34,0,0,1,1.25-3.87Z"/></g></g></svg>