<svg xmlns="http://www.w3.org/2000/svg" viewBox="0 0 118.5 30.06"><title>tan_3</title><g id="レイヤー_2" data-name="レイヤー 2"><g id="レイヤー_1-2" data-name="レイヤー 1"><path d="M1.77,10.42a35.48,35.48,0,0,1,1.37,5.67l-.06.32L1.46,18.15l-.14-.1A36,36,0,0,0,0,12.3L.06,12l1.58-1.6Zm7.36.45A57.54,57.54,0,0,1,7,21.74,23.08,23.08,0,0,1,3.36,29.3q-.15.21-.24.21c-.07,0-.13-.07-.22-.21L1.31,26.89a19,19,0,0,0,3.82-7.1,45.17,45.17,0,0,0,2-10.66L7.22,9l1.83,1.57ZM4.55,8.6A30.18,30.18,0,0,1,5.93,14l-.06.31L4.28,16.09,4.14,16a39.21,39.21,0,0,0-1.35-5.61l0-.28,1.57-1.6Z"/><path d="M25,6.69a1.61,1.61,0,0,1,.17.63,2.82,2.82,0,0,1-.08.59,88.24,88.24,0,0,1-2.37,9.47c.48.94,1,1.95,1.43,3.07v.38l-1.46,3.76-.13,0c-.44-1.12-.87-2.13-1.33-3.14a30.78,30.78,0,0,1-5.06,8.33c-.13.17-.22.24-.28.24s-.2-.1-.35-.34l-1.75-2.79a27.66,27.66,0,0,0,5.78-8.78,31.49,31.49,0,0,0-1.68-2.68v-.35l1.27-3.24.17,0c.55.77,1.09,1.54,1.6,2.34a47,47,0,0,0,1.34-5.47l-2.91,0a61.77,61.77,0,0,1-3.07,8c-.28.49-.36.45-.63,0L14,14.39A49.15,49.15,0,0,0,18.87.1L19,0l2,1.71,0,.38c-.16.77-.34,1.5-.52,2.23l2.06-.07L23.86,4Z"/><path d="M35.66,14.42c0,.59,0,1.22,0,1.74a27.36,27.36,0,0,0,1.2-3.41H32.19l-1.7.1-.1-.2V8.74l.1-.2,1.71.1h5.27l1.3-.14L39.62,11a1.38,1.38,0,0,1,.12.49,1.51,1.51,0,0,1-.1.49c-.66,2-1.51,4.46-2.32,6.37-.22.53-.33.42-.48.21l-1.21-1.81a36,36,0,0,1-.57,6.38,16.65,16.65,0,0,1-2.14,6c-.12.18-.19.28-.27.28s-.15-.07-.27-.21l-1.74-2a11.12,11.12,0,0,0,2.24-4.49c.51-2,.65-3.87.65-8.29l.1-.25h1.92Z"/><path d="M53.1,17.87H46.39L44.15,18l-.1-.28v-5l.14-.21,2.14.1H53l2.31-.1.12.24V17.7l-.1.28Z"/><path d="M68.12,17.87H61.41L59.17,18l-.11-.28v-5l.14-.21,2.15.1H68l2.31-.1.12.24V17.7l-.1.28Z"/><path d="M83.13,17.87H76.42L74.18,18l-.1-.28v-5l.13-.21,2.15.1h6.7l2.31-.1.12.24V17.7l-.11.28Z"/><path d="M89.39,7.77,90.85,4,91,3.9a25.35,25.35,0,0,1,3,4.81v.35l-1.57,4.21-.13,0a32.59,32.59,0,0,0-2.94-5.23ZM101,10.66a4.83,4.83,0,0,1,.06.66,1.42,1.42,0,0,1-.15.63A48.11,48.11,0,0,1,91,28L90.89,28l-1.35-4.7,0-.35c3.72-3.31,7.57-9.44,10.63-17.73Z"/><path d="M109.7,25.08c0,1.85-.66,3.35-1.44,3.35s-1.45-1.5-1.45-3.35.66-3.38,1.45-3.38S109.7,23.24,109.7,25.08Zm-.27-5.5h-2.35V.94h2.35Z"/><path d="M114.1,25.08c0,1.85-.66,3.35-1.44,3.35s-1.45-1.5-1.45-3.35.66-3.38,1.45-3.38S114.1,23.24,114.1,25.08Zm-.27-5.5h-2.35V.94h2.35Z"/><path d="M118.5,25.08c0,1.85-.66,3.35-1.44,3.35s-1.46-1.5-1.46-3.35.67-3.38,1.46-3.38S118.5,23.24,118.5,25.08Zm-.27-5.5h-2.35V.94h2.35Z"/></g></g></svg>