<svg xmlns="http://www.w3.org/2000/svg" viewBox="0 0 76.86 17.88"><title>tan_4</title><g id="レイヤー_2" data-name="レイヤー 2"><g id="レイヤー_1-2" data-name="レイヤー 1"><path d="M12.93,5.2a25.55,25.55,0,0,1-2.09,4.66c1,.63,1.75,1.34,1.75,2.12,0,.46-.24.92-.75.92s-1-.58-2-1.39a17.11,17.11,0,0,1-7.48,5.91c-.88.36-1.29-.46-.42-1a18.31,18.31,0,0,0,6.56-5.88C7.54,10,6.27,9.38,5,8.77c-.68-.32-.44-1.07.41-.9a25.69,25.69,0,0,1,4,1.21,17.24,17.24,0,0,0,1.77-4.93c0-.38-.12-.43-.44-.38-1.62.24-3.08.77-3.83.77A1.94,1.94,0,0,1,5.74,4,20.22,20.22,0,0,1,1,13c-.61.58-1.29.07-.87-.59C2,9.38,3.62,6.17,3.82,3.52A2.08,2.08,0,0,0,3,1.26C2.56.8,2.39.63,2.39.41S2.68,0,3.14,0C4.06,0,6,1,6,1.89c0,.3,0,.59,0,.88A5.26,5.26,0,0,0,7,2.92a21.18,21.18,0,0,0,3.13-.37c.63-.12,1-.51,1.38-.51.73,0,2.12,1.14,2.12,1.6S13.15,4.49,12.93,5.2Z"/><path d="M21.59,8.5c1.29,0,6.71-.56,8.38-.78,2.07-.26,2.63-.51,3.6-.51s2.52.56,2.52,1.61c0,.36-.24.68-1,.68s-1.36-.12-3.19-.12-7,.6-8.16.8a19.72,19.72,0,0,1-2.69.41c-1,0-2.24-1.51-2.24-2.65,0-.41.29-.58.68-.34A3.94,3.94,0,0,0,21.59,8.5Z"/><path d="M42.12,13.38a2.27,2.27,0,0,0,2.06,0c4.06-1.8,8.16-5.32,10.88-8.17a.53.53,0,0,1,.85.64,31.9,31.9,0,0,1-10.64,9.13,5,5,0,0,1-2.11.85,3.6,3.6,0,0,1-2.94-2.7c-.07-.43.25-.65.59-.46S41.78,13.21,42.12,13.38Zm-.8-10.63A6.91,6.91,0,0,1,45.47,5c.68.83.75,2.11,0,2.43-.58.24-1,.07-1.94-1.09a17.39,17.39,0,0,0-2.68-2.68C40.3,3.18,40.56,2.62,41.32,2.75Z"/><path d="M68.58,10.59c-.12,1-.29,1.39-.65,1.39s-.56-.39-.64-1.61c-.19-2-.7-8.28-.7-9,0-.34,0-.64.27-.76a3,3,0,0,1,1.6-.36c.66,0,1.07.14,1,.68C69.29,3,68.82,8.77,68.58,10.59Zm.88,5.71a1.58,1.58,0,0,1-1.53,1.58,1.37,1.37,0,0,1-1.34-1.43,1.5,1.5,0,0,1,1.53-1.53A1.41,1.41,0,0,1,69.46,16.3Z"/><path d="M76,10.59c-.12,1-.29,1.39-.65,1.39s-.56-.39-.63-1.61c-.2-2-.71-8.28-.71-9,0-.34,0-.64.27-.76a3,3,0,0,1,1.6-.36c.66,0,1.07.14,1,.68C76.66,3,76.2,8.77,76,10.59Zm.88,5.71a1.58,1.58,0,0,1-1.53,1.58A1.37,1.37,0,0,1,74,16.45a1.5,1.5,0,0,1,1.53-1.53A1.41,1.41,0,0,1,76.83,16.3Z"/></g></g></svg>