<svg xmlns="http://www.w3.org/2000/svg" viewBox="0 0 69.61 18.89"><title>tan_1</title><g id="レイヤー_2" data-name="レイヤー 2"><g id="レイヤー_1-2" data-name="レイヤー 1"><path d="M2.44,6.64a1.2,1.2,0,0,0,.24.85,2.73,2.73,0,0,1-1.37.84,3.71,3.71,0,0,1-.44.05l-.4-.19A2.85,2.85,0,0,1,0,6.5ZM8.64,0A3.13,3.13,0,0,0,7.23,1.76c-.31.87-.56,1.62-.78,2.3s-.49,1.5-.72,2A3.4,3.4,0,0,1,4,7.56a8.78,8.78,0,0,1-1.85.65,3,3,0,0,0,.75-.63c2-2.53,1.24-6,3-7.37Zm-3,14.34a5.43,5.43,0,0,0,1.43,2,1.77,1.77,0,0,0,1.1.42,4.64,4.64,0,0,0,1.25-.16,9.86,9.86,0,0,1-3,1.76l-.21.05A3.52,3.52,0,0,1,3.52,16.8a8.92,8.92,0,0,1-.87-1.5ZM9.06,6.41c2.72,2.09,2.25,4.36,5.72,5.3-.25,0-.58,0-.93,0A5.71,5.71,0,0,1,9.39,10C8.52,9,8,8.21,7.53,7.6A10.66,10.66,0,0,0,6.08,5.82c0-.14.12-.3.16-.49A6.81,6.81,0,0,1,9.06,6.41Zm7.48,1.5c-.75-4.37-3.7-4.53-6.26-4.11-.78.14-2.89.61-3.78.82a4.35,4.35,0,0,1,.17-.51c.18-.59.42-1.27.68-2A20.91,20.91,0,0,1,12,1.27C16.17,1.27,17.25,3.66,16.54,7.91ZM7.09,18.35A11.16,11.16,0,0,0,9,17.23,12.65,12.65,0,0,0,13,11.92c.33,0,.61.05.9.05a8.41,8.41,0,0,0,1.43-.12C13.56,15.28,10.87,18.07,7.09,18.35Zm7-14.06a3,3,0,0,1,.68.45A5.41,5.41,0,0,1,16.4,8.33v.1a12.53,12.53,0,0,1-1,3.16,4.63,4.63,0,0,1-2.05-.75,19.61,19.61,0,0,0,.73-3.26,11.3,11.3,0,0,0,0-3.14Z"/><path d="M22.68,3.8c-.17.07-1.2.54-1.6.66l.66-.73a8.11,8.11,0,0,1,1.85-.28C23.31,3.54,23,3.68,22.68,3.8ZM25.05,15a8.37,8.37,0,0,0,1.31,1.22,5.59,5.59,0,0,0,3.19,1.29h.1c.11,0,.26,0,.42-.05a17.68,17.68,0,0,1-1.95,1.06,12.67,12.67,0,0,1-4.57-1,18.75,18.75,0,0,1-1.84-.92ZM28.33,1.74a15.57,15.57,0,0,1,2.49.91,2.53,2.53,0,0,1-.82.68,9.42,9.42,0,0,1-2.58.73,2.89,2.89,0,0,1-.87-.26c-.28-.09-.61-.23-1.08-.37a5.15,5.15,0,0,0-1.53-.21,9,9,0,0,0-2,.25l1.65-1.69a13.13,13.13,0,0,1,2.67-.3A7.86,7.86,0,0,1,28.33,1.74Zm6,.94c-.63.39-2.84,1.71-4.27,1.76l-.37,0a7.47,7.47,0,0,1-1.88-.24,8.27,8.27,0,0,0,2.32-.7A3.23,3.23,0,0,0,31.62,1.6Zm4.6,2.93A23.84,23.84,0,0,0,36.8,8.4a5.74,5.74,0,0,0-.63,2.68A5.2,5.2,0,0,1,36,12.63a7.79,7.79,0,0,1-3.82,4.6,10.71,10.71,0,0,1-3.33,1.19,12,12,0,0,0,2.55-1.69A5.83,5.83,0,0,0,32.72,15a5.27,5.27,0,0,0,.63-2.23,8.5,8.5,0,0,1,2.7-6.43Z"/><path d="M45.94,16a6,6,0,0,0,.56,1c.52.73,1,1.08,1.46,1.08a3.32,3.32,0,0,0,.47,0,8.9,8.9,0,0,1-2,.77l-.16.05a2.41,2.41,0,0,1-1.83-1.15,4.26,4.26,0,0,1-.59-1Zm0-9.72a6.41,6.41,0,0,0-.12,1.15A8.24,8.24,0,0,0,46.06,10a1.87,1.87,0,0,0,.7,1.06,1.41,1.41,0,0,0,.78.23l.09,0a1.29,1.29,0,0,1-1.15.78.15.15,0,0,1-.09,0c-.71,0-1.86-.75-2.23-2.42a4.54,4.54,0,0,1,0-2.13,3.82,3.82,0,0,1,.3-.78Zm1.76,3.85a2.65,2.65,0,0,0,.19.45,1.28,1.28,0,0,1-.17.47s-.09,0-.16,0a1.26,1.26,0,0,1-1.13-.66ZM55.8,9.5a8.13,8.13,0,0,1-.31,2.16,9.53,9.53,0,0,1-2.58,4.44c-2.3,2.28-3.82,2.63-5.87,2.72A10,10,0,0,0,48.9,18a11.39,11.39,0,0,0,1.9-1.43,9.93,9.93,0,0,0,2.37-3.38,13.09,13.09,0,0,0,.68-4.79ZM49.41,6.31c0,.19-.07.61-.09,1.15A8.24,8.24,0,0,0,49.58,10a1.74,1.74,0,0,0,.7,1.06,1.37,1.37,0,0,0,.78.23l.09,0A1.29,1.29,0,0,1,50,12a.15.15,0,0,1-.09,0c-.71,0-1.86-.75-2.23-2.42a4.54,4.54,0,0,1,0-2.13,3.82,3.82,0,0,1,.3-.78Zm2,3.8a2.12,2.12,0,0,1-.19,1s-.09,0-.16,0a1.26,1.26,0,0,1-1.13-.66Z"/><path d="M61.45,5.32l8.16-1.78v9.09A2.43,2.43,0,0,1,67.06,15c-.64,0-1.3-.35-1.3-1C65.76,13,67,12,68.17,12a2.05,2.05,0,0,1,.88.18V7.46L62,9v5.42a2.44,2.44,0,0,1-2.55,2.38c-.64,0-1.3-.35-1.3-1,0-1,1.27-1.92,2.41-1.92a2.09,2.09,0,0,1,.88.18Zm7.6.74v-1L62,6.59v1Z"/></g></g></svg>