<svg xmlns="http://www.w3.org/2000/svg" viewBox="0 0 108.98 17.37"><title>tan_2</title><g id="レイヤー_2" data-name="レイヤー 2"><g id="レイヤー_1-2" data-name="レイヤー 1"><path d="M20.52,3.25a19.29,19.29,0,0,0-1.44,2.16c-.11.22-.91,1.85-1.55,3.07a9.8,9.8,0,0,0,3,.42A26.74,26.74,0,0,1,17,9.59c0,.05-1.11,1.74-2,3.05a9.76,9.76,0,0,1-3.32,3.49,9.25,9.25,0,0,1-4.82,1.24,17.34,17.34,0,0,1-5.34-1l2.79-1.44A5.08,5.08,0,0,0,7.62,16.6a4.72,4.72,0,0,0,3.51-1.78,12.08,12.08,0,0,0,2.14-3.13c.25-.44.74-1.71.94-2.21a21.12,21.12,0,0,1-3.52-1.75A14.6,14.6,0,0,0,7.31,6.57,17.67,17.67,0,0,1,4.82,8.23,23.55,23.55,0,0,1,0,10.34,19.13,19.13,0,0,0,5.43,5.77,15.26,15.26,0,0,0,7.37,1.25h15.7A9.55,9.55,0,0,0,20.52,3.25Zm-9.86-.67A15.52,15.52,0,0,1,8,6a10.38,10.38,0,0,1,4.4-.09,11.6,11.6,0,0,1,2.69,1.25,23.88,23.88,0,0,1,1.08-2.66,19.89,19.89,0,0,1,1.24-1.94Z"/><path d="M42,4.63c0,.09,0,.17-.11.2a3.64,3.64,0,0,0-1.08.66,3.1,3.1,0,0,0-.83,1.39l-.08.22a6.93,6.93,0,0,1-2.3,3.07,7.68,7.68,0,0,1-2.63,1.08,6.2,6.2,0,0,1-1.8,4.07,7,7,0,0,1-4.85,2.05c-1.27,0-2.82-.16-2.85-.16a.24.24,0,0,1-.14-.14.13.13,0,0,1,.06-.17l1.27-1a.21.21,0,0,1,.19,0,3.26,3.26,0,0,0,1.47.56,4.11,4.11,0,0,0,2.74-1,5.54,5.54,0,0,0,1.36-3.77A7.14,7.14,0,0,0,32,8.45a2.57,2.57,0,0,0-1.74-1.24.2.2,0,0,1-.14-.2.17.17,0,0,1,.16-.13h.28a8.24,8.24,0,0,1,2.38.3c1.22.33,1.86,1.83,2,3.13a6.45,6.45,0,0,0,2.13-2,5.19,5.19,0,0,0,.47-2.5h-10a1.42,1.42,0,0,0-.92.34,2.88,2.88,0,0,0-.66.72.16.16,0,0,1-.14.08h-.3c-.06,0-.11,0-.14-.06s0-.08,0-.13l.47-2.14a.16.16,0,0,1,.17-.14H41.8A.17.17,0,0,1,42,4.63Z"/><path d="M52.12,6.85A1.55,1.55,0,1,1,50.57,5.3,1.54,1.54,0,0,1,52.12,6.85Z"/><path d="M67.13,6.85A1.55,1.55,0,1,1,65.58,5.3,1.54,1.54,0,0,1,67.13,6.85Z"/><path d="M82.13,6.85A1.55,1.55,0,1,1,80.59,5.3,1.54,1.54,0,0,1,82.13,6.85Z"/><path d="M91.39.15A12.87,12.87,0,0,1,97.1,2.22a9.39,9.39,0,0,1,3.13,2.88L96.49,6.52C95.1,2.86,91,.53,88.84,0A14.64,14.64,0,0,1,91.39.15ZM109,6.6c0,3.68-2.86,7-6.68,8.58a43.85,43.85,0,0,1-9.47,2.19l-1.49-3.93a35.6,35.6,0,0,0,8.5-.44c5.84-1.28,8.36-3.83,8.36-6,0-3.77-3.24-3.63-3.24-3.63l2.27-1.22S109,2.86,109,6.6Z"/></g></g></svg>